<?xml version="1.0" encoding="UTF-8"?>
<svg xmlns="http://www.w3.org/2000/svg" viewBox="0 0 1800 1250" font-family="Arial, 'Microsoft YaHei', sans-serif">
  <defs>
    <marker id="arrow" viewBox="0 0 10 10" refX="9" refY="5" markerWidth="6" markerHeight="6" orient="auto">
      <path d="M 0 0 L 10 5 L 0 10 z" fill="#333"/>
    </marker>
    <style>
      .title { font-size: 22px; font-weight: bold; fill: #1a237e; }
      .subtitle { font-size: 13px; fill: #546e7a; }
      .block-title { font-size: 14px; font-weight: bold; fill: #fff; }
      .pin-label { font-size: 11px; fill: #212121; }
      .pin-name { font-size: 10px; fill: #424242; }
      .net-label { font-size: 10px; font-weight: bold; }
      .legend-text { font-size: 11px; fill: #212121; }
      .note { font-size: 10px; fill: #d32f2f; font-style: italic; }
    </style>
  </defs>

  <!-- 背景 -->
  <rect x="0" y="0" width="1800" height="1250" fill="#fafafa"/>

  <!-- 标题 -->
  <text x="900" y="35" text-anchor="middle" class="title">光电象棋智能车 — 硬件接线示意图</text>
  <text x="900" y="55" text-anchor="middle" class="subtitle">K230 视觉决策 + ESP32-S3 运动控制 双芯架构 | 依据 config.py 引脚定义绘制</text>

  <!-- ===================== 电源模块 ===================== -->
  <g id="power">
    <rect x="30" y="80" width="300" height="340" rx="8" fill="#fff3e0" stroke="#e65100" stroke-width="2"/>
    <rect x="30" y="80" width="300" height="30" rx="8" fill="#e65100"/>
    <rect x="30" y="100" width="300" height="10" fill="#e65100"/>
    <text x="180" y="101" text-anchor="middle" class="block-title">电源系统 Power System</text>

    <!-- 电池 -->
    <rect x="50" y="130" width="120" height="50" rx="5" fill="#fff" stroke="#d32f2f" stroke-width="1.5"/>
    <text x="110" y="152" text-anchor="middle" font-size="11" font-weight="bold" fill="#d32f2f">锂电池 2S</text>
    <text x="110" y="168" text-anchor="middle" font-size="9" fill="#424242">7.4V 500mAh</text>
    <text x="55" y="158" font-size="10" fill="#d32f2f">+</text>
    <text x="160" y="158" font-size="10" fill="#616161">−</text>

    <!-- 开关 -->
    <rect x="200" y="140" width="60" height="30" rx="4" fill="#fff" stroke="#455a64" stroke-width="1.5"/>
    <text x="230" y="160" text-anchor="middle" font-size="10" fill="#455a64">船型开关</text>

    <!-- 7.4V 母线到开关 -->
    <line x1="170" y1="155" x2="200" y2="155" stroke="#d32f2f" stroke-width="2.5"/>
    <text x="180" y="148" text-anchor="middle" font-size="9" fill="#d32f2f" font-weight="bold">7.4V</text>

    <!-- 滤波电容1 -->
    <rect x="50" y="200" width="60" height="35" rx="3" fill="#fff" stroke="#6a1b9a" stroke-width="1.5"/>
    <text x="80" y="216" text-anchor="middle" font-size="9" fill="#6a1b9a">C1</text>
    <text x="80" y="228" text-anchor="middle" font-size="8" fill="#424242">1000μF/16V</text>

    <!-- 滤波电容2 -->
    <rect x="125" y="200" width="60" height="35" rx="3" fill="#fff" stroke="#6a1b9a" stroke-width="1.5"/>
    <text x="155" y="216" text-anchor="middle" font-size="9" fill="#6a1b9a">C2</text>
    <text x="155" y="228" text-anchor="middle" font-size="8" fill="#424242">1000μF/16V</text>

    <!-- DC-DC -->
    <rect x="200" y="200" width="110" height="55" rx="5" fill="#fff" stroke="#f57c00" stroke-width="1.5"/>
    <text x="255" y="218" text-anchor="middle" font-size="10" font-weight="bold" fill="#f57c00">DC-DC 降压</text>
    <text x="255" y="232" text-anchor="middle" font-size="9" fill="#424242">7.4V → 5V/2A</text>
    <text x="255" y="245" text-anchor="middle" font-size="8" fill="#424242">同步整流</text>

    <!-- 7.4V 到电容和DC-DC -->
    <line x1="230" y1="170" x2="230" y2="200" stroke="#d32f2f" stroke-width="2.5"/>
    <line x1="230" y1="200" x2="80" y2="200" stroke="#d32f2f" stroke-width="2.5"/>
    <line x1="230" y1="200" x2="255" y2="200" stroke="#d32f2f" stroke-width="2.5"/>

    <!-- GND 母线 -->
    <line x1="50" y1="255" x2="310" y2="255" stroke="#616161" stroke-width="3"/>
    <text x="300" y="250" text-anchor="end" font-size="9" fill="#616161" font-weight="bold">GND</text>
    <!-- 电池负极到GND -->
    <line x1="170" y1="155" x2="170" y2="255" stroke="#616161" stroke-width="2"/>
    <!-- 电容负极到GND -->
    <line x1="80" y1="235" x2="80" y2="255" stroke="#616161" stroke-width="1.5"/>
    <line x1="155" y1="235" x2="155" y2="255" stroke="#616161" stroke-width="1.5"/>
    <!-- DC-DC GND -->
    <line x1="255" y1="255" x2="255" y2="255" stroke="#616161" stroke-width="1.5"/>

    <!-- 5V 输出母线 -->
    <line x1="255" y1="255" x2="255" y2="280" stroke="#f57c00" stroke-width="2.5"/>
    <line x1="255" y1="280" x2="340" y2="280" stroke="#f57c00" stroke-width="2.5"/>
    <text x="335" y="276" text-anchor="end" font-size="9" fill="#f57c00" font-weight="bold">5V</text>

    <!-- 供电分配说明 -->
    <text x="50" y="300" font-size="10" fill="#424242">5V 供电：ESP32-S3、舵机、传感器</text>
    <text x="50" y="315" font-size="10" fill="#424242">7.4V 供电：四路电机驱动板 VM</text>
    <text x="50" y="330" font-size="10" fill="#424242">3.3V：ESP32/K230 板载 LDO 产生</text>
    <text x="50" y="350" font-size="10" fill="#d32f2f" font-style="italic">※ C1/C2 就近并联在驱动板电源端</text>
    <text x="50" y="365" font-size="10" fill="#d32f2f" font-style="italic">※ 所有模块 GND 共地</text>
    <text x="50" y="380" font-size="10" fill="#d32f2f" font-style="italic">※ 舵机 5V 建议加 470μF 电容</text>
    <text x="50" y="395" font-size="10" fill="#d32f2f" font-style="italic">※ K230 独立 5V 供电（大电流）</text>
  </g>

  <!-- ===================== ESP32-S3 ===================== -->
  <g id="esp32">
    <rect x="380" y="80" width="300" height="560" rx="8" fill="#e3f2fd" stroke="#1565c0" stroke-width="2"/>
    <rect x="380" y="80" width="300" height="30" rx="8" fill="#1565c0"/>
    <rect x="380" y="100" width="300" height="10" fill="#1565c0"/>
    <text x="530" y="101" text-anchor="middle" class="block-title">ESP32-S3 运动控制主控</text>

    <!-- 左侧引脚 -->
    <g id="esp32_left_pins">
      <line x1="380" y1="140" x2="340" y2="140" stroke="#388e3c" stroke-width="2"/>
      <text x="375" y="137" text-anchor="end" class="pin-label">GPIO10</text>
      <text x="375" y="150" text-anchor="end" class="pin-name">I2C_SCL</text>

      <line x1="380" y1="175" x2="340" y2="175" stroke="#388e3c" stroke-width="2"/>
      <text x="375" y="172" text-anchor="end" class="pin-label">GPIO11</text>
      <text x="375" y="185" text-anchor="end" class="pin-name">I2C_SDA</text>

      <line x1="380" y1="210" x2="340" y2="210" stroke="#1976d2" stroke-width="2"/>
      <text x="375" y="207" text-anchor="end" class="pin-label">GPIO17</text>
      <text x="375" y="220" text-anchor="end" class="pin-name">UART2_TX →驱动</text>

      <line x1="380" y1="245" x2="340" y2="245" stroke="#1976d2" stroke-width="2"/>
      <text x="375" y="242" text-anchor="end" class="pin-label">GPIO18</text>
      <text x="375" y="255" text-anchor="end" class="pin-name">UART2_RX ←驱动</text>
    </g>

    <!-- 右侧引脚 -->
    <g id="esp32_right_pins">
      <line x1="680" y1="140" x2="720" y2="140" stroke="#1976d2" stroke-width="2"/>
      <text x="685" y="137" class="pin-label">GPIO12</text>
      <text x="685" y="150" class="pin-name">UART1_TX →K230</text>

      <line x1="680" y1="175" x2="720" y2="175" stroke="#1976d2" stroke-width="2"/>
      <text x="685" y="172" class="pin-label">GPIO13</text>
      <text x="685" y="185" class="pin-name">UART1_RX ←K230</text>

      <line x1="680" y1="210" x2="720" y2="210" stroke="#455a64" stroke-width="2"/>
      <text x="685" y="207" class="pin-label">GPIO21</text>
      <text x="685" y="220" class="pin-name">VL53L0X_L_XSHUT</text>

      <line x1="680" y1="245" x2="720" y2="245" stroke="#455a64" stroke-width="2"/>
      <text x="685" y="242" class="pin-label">GPIO38</text>
      <text x="685" y="255" class="pin-name">VL53L0X_R_XSHUT</text>
    </g>

    <!-- 电源引脚 -->
    <line x1="530" y1="640" x2="530" y2="660" stroke="#f57c00" stroke-width="2.5"/>
    <line x1="470" y1="640" x2="470" y2="660" stroke="#616161" stroke-width="2.5"/>
    <text x="530" y="635" text-anchor="middle" font-size="10" font-weight="bold" fill="#f57c00">5V</text>
    <text x="470" y="635" text-anchor="middle" font-size="10" font-weight="bold" fill="#616161">GND</text>

    <!-- ESP32 内部说明 -->
    <text x="530" y="540" text-anchor="middle" font-size="11" fill="#1565c0" font-weight="bold">MicroPython</text>
    <text x="530" y="558" text-anchor="middle" font-size="10" fill="#424242">航迹推算 · 传感采集</text>
    <text x="530" y="572" text-anchor="middle" font-size="10" fill="#424242">串口通信 · 运动指令</text>
    <text x="530" y="586" text-anchor="middle" font-size="10" fill="#424242">避障执行</text>
    <text x="530" y="610" text-anchor="middle" font-size="9" fill="#546e7a">Type-C · 预焊排针</text>
  </g>

  <!-- ===================== K230 视觉模块 ===================== -->
  <g id="k230">
    <rect x="1080" y="80" width="320" height="380" rx="8" fill="#e8f5e9" stroke="#2e7d32" stroke-width="2"/>
    <rect x="1080" y="80" width="320" height="30" rx="8" fill="#2e7d32"/>
    <rect x="1080" y="100" width="320" height="10" fill="#2e7d32"/>
    <text x="1240" y="101" text-anchor="middle" class="block-title">K230 一体化视觉核心板</text>

    <!-- 摄像头（K230 板载集成，无需外接） -->
    <rect x="1120" y="130" width="120" height="60" rx="5" fill="#fff" stroke="#558b2f" stroke-width="1.5"/>
    <text x="1180" y="155" text-anchor="middle" font-size="11" font-weight="bold" fill="#558b2f">板载摄像头</text>
    <text x="1180" y="172" text-anchor="middle" font-size="9" fill="#424242">K230 集成</text>
    <text x="1180" y="184" text-anchor="middle" font-size="8" fill="#424242">免外接</text>
    <line x1="1240" y1="190" x2="1240" y2="210" stroke="#558b2f" stroke-width="2" stroke-dasharray="4,2"/>
    <text x="1260" y="205" font-size="9" fill="#558b2f">板载直连</text>

    <!-- K230 核心功能 -->
    <text x="1240" y="240" text-anchor="middle" font-size="11" fill="#2e7d32" font-weight="bold">MaixPy 固件</text>
    <text x="1240" y="258" text-anchor="middle" font-size="10" fill="#424242">NPU 视觉算力</text>
    <text x="1240" y="272" text-anchor="middle" font-size="10" fill="#424242">棋子识别 · 路径规划</text>
    <text x="1240" y="286" text-anchor="middle" font-size="10" fill="#424242">决策输出 · 云台控制</text>

    <!-- 舵机 PWM 引脚（K230 直接控制云台） -->
    <line x1="1080" y1="330" x2="1040" y2="330" stroke="#c2185b" stroke-width="2"/>
    <text x="1075" y="327" text-anchor="end" class="pin-label">GPIO42</text>
    <text x="1075" y="340" text-anchor="end" class="pin-name">PWM0 →PAN</text>

    <line x1="1080" y1="365" x2="1040" y2="365" stroke="#c2185b" stroke-width="2"/>
    <text x="1075" y="362" text-anchor="end" class="pin-label">GPIO43</text>
    <text x="1075" y="375" text-anchor="end" class="pin-name">PWM1 →TILT</text>

    <!-- UART 引脚 -->
    <line x1="1080" y1="400" x2="1040" y2="400" stroke="#1976d2" stroke-width="2"/>
    <text x="1075" y="397" text-anchor="end" class="pin-label">UART_RX</text>
    <text x="1075" y="410" text-anchor="end" class="pin-name">←ESP32_TX</text>

    <line x1="1080" y1="435" x2="1040" y2="435" stroke="#1976d2" stroke-width="2"/>
    <text x="1075" y="432" text-anchor="end" class="pin-label">UART_TX</text>
    <text x="1075" y="445" text-anchor="end" class="pin-name">→ESP32_RX</text>

    <!-- 电源 -->
    <line x1="1240" y1="460" x2="1240" y2="480" stroke="#f57c00" stroke-width="2.5"/>
    <line x1="1180" y1="460" x2="1180" y2="480" stroke="#616161" stroke-width="2.5"/>
    <text x="1240" y="455" text-anchor="middle" font-size="10" font-weight="bold" fill="#f57c00">5V</text>
    <text x="1180" y="455" text-anchor="middle" font-size="10" font-weight="bold" fill="#616161">GND</text>

    <text x="1240" y="420" text-anchor="middle" font-size="9" fill="#d32f2f" font-style="italic">※ 建议独立 5V/2A 供电</text>
  </g>

  <!-- ===================== UART 连接线 ===================== -->
  <g id="uart_lines">
    <!-- ESP32 TX -> K230 RX -->
    <path d="M 720 210 L 1040 210 L 1040 400 L 1080 400" fill="none" stroke="#1976d2" stroke-width="2" marker-end="url(#arrow)"/>
    <text x="880" y="205" text-anchor="middle" font-size="10" fill="#1976d2" font-weight="bold">UART_TX (GPIO12) → RX</text>

    <!-- K230 TX -> ESP32 RX -->
    <path d="M 1080 435 L 1040 435 L 1040 245 L 720 245" fill="none" stroke="#1976d2" stroke-width="2" marker-end="url(#arrow)"/>
    <text x="880" y="430" text-anchor="middle" font-size="10" fill="#1976d2" font-weight="bold">UART_RX (GPIO13) ← TX</text>

    <text x="880" y="300" text-anchor="middle" font-size="11" fill="#1565c0" font-weight="bold">串口通信 115200 bps</text>
    <text x="880" y="316" text-anchor="middle" font-size="10" fill="#424242">文本行协议，\n 结尾</text>
  </g>

  <!-- ===================== 四路智能电机驱动模块 ===================== -->
  <g id="motor_system">
    <rect x="380" y="430" width="700" height="200" rx="8" fill="#fce4ec" stroke="#ad1457" stroke-width="2"/>
    <rect x="380" y="430" width="700" height="26" rx="8" fill="#ad1457"/>
    <rect x="380" y="446" width="700" height="10" fill="#ad1457"/>
    <text x="730" y="449" text-anchor="middle" class="block-title">四路智能电机驱动模块（AT8236×4 + MCU 协处理器）</text>

    <!-- 模块特性 -->
    <text x="400" y="478" font-size="10" fill="#424242">通信：UART2 115200（$spd/$pwm/$upload 指令）</text>
    <text x="400" y="494" font-size="10" fill="#424242">内置：电机 PID 调速 + 编码器读取（ESP32 无需 GPIO PWM/中断）</text>
    <text x="400" y="510" font-size="10" fill="#424242">供电：VM 5-12V；输出 5V/0.7A、3.3V/500mA</text>

    <!-- 4 通道 -->
    <rect x="390" y="525" width="160" height="95" rx="4" fill="#fff" stroke="#880e4f" stroke-width="1"/>
    <text x="470" y="543" text-anchor="middle" font-size="9" font-weight="bold" fill="#880e4f">M1 · 左前电机</text>
    <text x="398" y="560" font-size="8" class="pin-name">XH2.54 → 左前TT</text>
    <text x="398" y="574" font-size="8" class="pin-name">编码器 PH2.0-6P</text>
    <text x="398" y="588" font-size="8" fill="#d32f2f">驱动内置PID</text>
    <text x="398" y="602" font-size="8" fill="#546e7a">4A 持续 / 5.5A 峰值</text>

    <rect x="560" y="525" width="160" height="95" rx="4" fill="#fff" stroke="#880e4f" stroke-width="1"/>
    <text x="640" y="543" text-anchor="middle" font-size="9" font-weight="bold" fill="#880e4f">M2 · 左后电机</text>
    <text x="568" y="560" font-size="8" class="pin-name">XH2.54 → 左后TT</text>
    <text x="568" y="574" font-size="8" class="pin-name">编码器 PH2.0-6P</text>
    <text x="568" y="588" font-size="8" fill="#d32f2f">驱动内置PID</text>
    <text x="568" y="602" font-size="8" fill="#546e7a">4A 持续 / 5.5A 峰值</text>

    <rect x="730" y="525" width="160" height="95" rx="4" fill="#fff" stroke="#880e4f" stroke-width="1"/>
    <text x="810" y="543" text-anchor="middle" font-size="9" font-weight="bold" fill="#880e4f">M3 · 右前电机</text>
    <text x="738" y="560" font-size="8" class="pin-name">XH2.54 → 右前TT</text>
    <text x="738" y="574" font-size="8" class="pin-name">编码器 PH2.0-6P</text>
    <text x="738" y="588" font-size="8" fill="#d32f2f">驱动内置PID</text>
    <text x="738" y="602" font-size="8" fill="#546e7a">4A 持续 / 5.5A 峰值</text>

    <rect x="900" y="525" width="160" height="95" rx="4" fill="#fff" stroke="#880e4f" stroke-width="1"/>
    <text x="980" y="543" text-anchor="middle" font-size="9" font-weight="bold" fill="#880e4f">M4 · 右后电机</text>
    <text x="908" y="560" font-size="8" class="pin-name">XH2.54 → 右后TT</text>
    <text x="908" y="574" font-size="8" class="pin-name">编码器 PH2.0-6P</text>
    <text x="908" y="588" font-size="8" fill="#d32f2f">驱动内置PID</text>
    <text x="908" y="602" font-size="8" fill="#546e7a">4A 持续 / 5.5A 峰值</text>

    <!-- 驱动板电源 -->
    <line x1="420" y1="630" x2="420" y2="650" stroke="#d32f2f" stroke-width="2"/>
    <text x="420" y="663" text-anchor="middle" font-size="8" font-weight="bold" fill="#d32f2f">VM 7.4V</text>
    <line x1="500" y1="630" x2="500" y2="650" stroke="#616161" stroke-width="2"/>
    <text x="500" y="663" text-anchor="middle" font-size="8" font-weight="bold" fill="#616161">GND</text>
    <line x1="580" y1="630" x2="580" y2="650" stroke="#f57c00" stroke-width="2"/>
    <text x="580" y="663" text-anchor="middle" font-size="8" font-weight="bold" fill="#f57c00">5V 输出</text>
    <line x1="660" y1="630" x2="660" y2="650" stroke="#455a64" stroke-width="2"/>
    <text x="660" y="663" text-anchor="middle" font-size="8" font-weight="bold" fill="#455a64">3.3V 输出</text>

    <!-- UART2 连接线：ESP32 GPIO17/18 → 驱动 -->
    <path d="M 340 280 L 300 280 L 300 470 L 380 470" fill="none" stroke="#1976d2" stroke-width="2" stroke-dasharray="6,3" marker-end="url(#arrow)"/>
    <text x="310" y="380" font-size="9" fill="#1976d2" font-weight="bold" transform="rotate(-90 310 380)">UART2_TX (GPIO17)</text>
    <path d="M 340 315 L 320 315 L 320 490 L 380 490" fill="none" stroke="#1976d2" stroke-width="2" stroke-dasharray="6,3" marker-end="url(#arrow)"/>
    <text x="330" y="410" font-size="9" fill="#1976d2" font-weight="bold" transform="rotate(-90 330 410)">UART2_RX (GPIO18)</text>
  </g>

  <!-- 编码器由四路驱动板内置读取，无需 ESP32 GPIO 中断 -->

  <!-- ===================== 舵机云台 ===================== -->
  <g id="servos">
    <rect x="380" y="760" width="300" height="100" rx="8" fill="#fce4ec" stroke="#c2185b" stroke-width="2"/>
    <rect x="380" y="760" width="300" height="26" rx="8" fill="#c2185b"/>
    <rect x="380" y="778" width="300" height="8" fill="#c2185b"/>
    <text x="530" y="780" text-anchor="middle" class="block-title">二自由度云台 (SG90M 数字舵机)</text>

    <rect x="400" y="800" width="130" height="50" rx="5" fill="#fff" stroke="#ad1457" stroke-width="1.5"/>
    <text x="465" y="820" text-anchor="middle" font-size="10" font-weight="bold" fill="#ad1457">水平舵机 PAN</text>
    <text x="465" y="836" text-anchor="middle" font-size="9" fill="#424242">PWM ← K230 GPIO42 · 5V</text>

    <rect x="540" y="800" width="130" height="50" rx="5" fill="#fff" stroke="#ad1457" stroke-width="1.5"/>
    <text x="605" y="820" text-anchor="middle" font-size="10" font-weight="bold" fill="#ad1457">俯仰舵机 TILT</text>
    <text x="605" y="836" text-anchor="middle" font-size="9" fill="#424242">PWM ← K230 GPIO43 · 5V</text>

    <!-- 舵机到K230连接线（K230直接控制云台） -->
    <path d="M 465 800 L 465 700 L 1040 700 L 1040 330 L 1080 330" fill="none" stroke="#c2185b" stroke-width="1.5" stroke-dasharray="5,3"/>
    <text x="750" y="695" font-size="9" fill="#c2185b" font-weight="bold">K230 PWM0 → 云台PAN</text>
    <path d="M 605 800 L 605 720 L 1040 720 L 1040 365 L 1080 365" fill="none" stroke="#c2185b" stroke-width="1.5" stroke-dasharray="5,3"/>
    <text x="750" y="715" font-size="9" fill="#c2185b" font-weight="bold">K230 PWM1 → 云台TILT</text>
  </g>

  <!-- ===================== I2C 传感器总线 ===================== -->
  <g id="i2c_sensors">
    <rect x="720" y="760" width="680" height="230" rx="8" fill="#e8f5e9" stroke="#388e3c" stroke-width="2"/>
    <rect x="720" y="760" width="680" height="26" rx="8" fill="#388e3c"/>
    <rect x="720" y="778" width="680" height="8" fill="#388e3c"/>
    <text x="1060" y="780" text-anchor="middle" class="block-title">I2C 传感器总线 (SCL=GPIO10, SDA=GPIO11, 400kHz)</text>

    <!-- I2C 总线 -->
    <line x1="760" y1="820" x2="1360" y2="820" stroke="#388e3c" stroke-width="3"/>
    <text x="760" y="815" font-size="9" fill="#388e3c" font-weight="bold">SCL</text>
    <line x1="760" y1="845" x2="1360" y2="845" stroke="#388e3c" stroke-width="3"/>
    <text x="760" y="840" font-size="9" fill="#388e3c" font-weight="bold">SDA</text>

    <!-- MPU6050 -->
    <rect x="770" y="870" width="170" height="100" rx="5" fill="#fff" stroke="#2e7d32" stroke-width="1.5"/>
    <text x="855" y="892" text-anchor="middle" font-size="10" font-weight="bold" fill="#2e7d32">MPU6050 六轴IMU</text>
    <text x="855" y="908" text-anchor="middle" font-size="9" fill="#424242">I2C 地址: 0x68</text>
    <text x="855" y="922" text-anchor="middle" font-size="9" fill="#424242">角速度 + 加速度</text>
    <text x="855" y="936" text-anchor="middle" font-size="9" fill="#424242">航向角解算</text>
    <text x="855" y="950" text-anchor="middle" font-size="8" fill="#546e7a">VCC=3.3V · GND</text>
    <line x1="855" y1="870" x2="855" y2="820" stroke="#388e3c" stroke-width="1.5"/>
    <line x1="870" y1="870" x2="870" y2="845" stroke="#388e3c" stroke-width="1.5"/>

    <!-- VL53L0X 左 -->
    <rect x="960" y="870" width="170" height="100" rx="5" fill="#fff" stroke="#2e7d32" stroke-width="1.5"/>
    <text x="1045" y="892" text-anchor="middle" font-size="10" font-weight="bold" fill="#2e7d32">VL53L0X (左)</text>
    <text x="1045" y="908" text-anchor="middle" font-size="9" fill="#424242">I2C 地址: 0x30</text>
    <text x="1045" y="922" text-anchor="middle" font-size="9" fill="#424242">激光测距 Class1</text>
    <text x="1045" y="936" text-anchor="middle" font-size="9" fill="#424242">XSHUT → GPIO21</text>
    <text x="1045" y="950" text-anchor="middle" font-size="8" fill="#546e7a">VCC=3.3V · &lt;1mW</text>
    <line x1="1045" y1="870" x2="1045" y2="820" stroke="#388e3c" stroke-width="1.5"/>
    <line x1="1060" y1="870" x2="1060" y2="845" stroke="#388e3c" stroke-width="1.5"/>

    <!-- VL53L0X 右 -->
    <rect x="1150" y="870" width="170" height="100" rx="5" fill="#fff" stroke="#2e7d32" stroke-width="1.5"/>
    <text x="1235" y="892" text-anchor="middle" font-size="10" font-weight="bold" fill="#2e7d32">VL53L0X (右)</text>
    <text x="1235" y="908" text-anchor="middle" font-size="9" fill="#424242">I2C 地址: 0x31</text>
    <text x="1235" y="922" text-anchor="middle" font-size="9" fill="#424242">激光测距 Class1</text>
    <text x="1235" y="936" text-anchor="middle" font-size="9" fill="#424242">XSHUT → GPIO38</text>
    <text x="1235" y="950" text-anchor="middle" font-size="8" fill="#546e7a">VCC=3.3V · &lt;1mW</text>
    <line x1="1235" y1="870" x2="1235" y2="820" stroke="#388e3c" stroke-width="1.5"/>
    <line x1="1250" y1="870" x2="1250" y2="845" stroke="#388e3c" stroke-width="1.5"/>

    <!-- I2C 到 ESP32 -->
    <path d="M 760 820 L 700 820 L 700 420 L 340 420" fill="none" stroke="#388e3c" stroke-width="2" stroke-dasharray="6,3"/>
    <path d="M 760 845 L 700 845 L 700 455 L 340 455" fill="none" stroke="#388e3c" stroke-width="2" stroke-dasharray="6,3"/>
    <text x="700" y="630" font-size="9" fill="#388e3c" font-weight="bold" transform="rotate(-90 700 630)">I2C 总线</text>
  </g>

  <!-- ===================== 电源分发连接线 ===================== -->
  <g id="power_dist">
    <!-- 5V 到 ESP32 -->
    <path d="M 340 280 L 530 280 L 530 660" fill="none" stroke="#f57c00" stroke-width="2.5" stroke-dasharray="6,3"/>
    <!-- 5V 到 K230 -->
    <path d="M 340 280 L 340 480 L 1240 480" fill="none" stroke="#f57c00" stroke-width="2.5" stroke-dasharray="6,3"/>
    <!-- 7.4V 到驱动板 VM -->
    <path d="M 230 280 L 230 640 L 420 640" fill="none" stroke="#d32f2f" stroke-width="2.5" stroke-dasharray="6,3"/>
    <!-- GND 公共 -->
    <line x1="340" y1="255" x2="340" y2="660" stroke="#616161" stroke-width="2" stroke-dasharray="4,3"/>
    <line x1="340" y1="660" x2="470" y2="660" stroke="#616161" stroke-width="2" stroke-dasharray="4,3"/>
  </g>

  <!-- ===================== 图例 ===================== -->
  <g id="legend">
    <rect x="1430" y="80" width="340" height="300" rx="8" fill="#fff" stroke="#9e9e9e" stroke-width="1.5"/>
    <text x="1600" y="105" text-anchor="middle" font-size="13" font-weight="bold" fill="#212121">图例 Legend</text>

    <line x1="1450" y1="130" x2="1490" y2="130" stroke="#d32f2f" stroke-width="3"/>
    <text x="1500" y="134" class="legend-text">7.4V 动力电源</text>

    <line x1="1450" y1="155" x2="1490" y2="155" stroke="#f57c00" stroke-width="3"/>
    <text x="1500" y="159" class="legend-text">5V 逻辑/舵机电源</text>

    <line x1="1450" y1="180" x2="1490" y2="180" stroke="#616161" stroke-width="3"/>
    <text x="1500" y="184" class="legend-text">GND 公共地</text>

    <line x1="1450" y1="205" x2="1490" y2="205" stroke="#1976d2" stroke-width="2.5"/>
    <text x="1500" y="209" class="legend-text">UART 串口 (115200)</text>

    <line x1="1450" y1="230" x2="1490" y2="230" stroke="#388e3c" stroke-width="2.5"/>
    <text x="1500" y="234" class="legend-text">I2C 总线 (400kHz)</text>

    <line x1="1450" y1="255" x2="1490" y2="255" stroke="#7b1fa2" stroke-width="2.5"/>
    <text x="1500" y="259" class="legend-text">PWM/电机驱动</text>

    <line x1="1450" y1="280" x2="1490" y2="280" stroke="#00796b" stroke-width="2.5"/>
    <text x="1500" y="284" class="legend-text">编码器 AB 相</text>

    <line x1="1450" y1="305" x2="1490" y2="305" stroke="#c2185b" stroke-width="2.5"/>
    <text x="1500" y="309" class="legend-text">舵机 PWM</text>

    <line x1="1450" y1="330" x2="1490" y2="330" stroke="#455a64" stroke-width="2.5"/>
    <text x="1500" y="334" class="legend-text">GPIO 控制信号</text>

    <line x1="1450" y1="355" x2="1490" y2="355" stroke="#333" stroke-width="1.5" stroke-dasharray="5,3"/>
    <text x="1500" y="359" class="legend-text">信号连接 (跨区)</text>
  </g>

  <!-- ===================== 技术参数表 ===================== -->
  <g id="specs">
    <rect x="1430" y="400" width="340" height="350" rx="8" fill="#fff" stroke="#9e9e9e" stroke-width="1.5"/>
    <text x="1600" y="425" text-anchor="middle" font-size="13" font-weight="bold" fill="#212121">核心技术参数</text>

    <text x="1450" y="450" font-size="10" fill="#424242">主控：K230 (MaixPy) + ESP32-S3</text>
    <text x="1450" y="468" font-size="10" fill="#424242">摄像头：K230 板载集成</text>
    <text x="1450" y="486" font-size="10" fill="#424242">电机：TT编码器 1:45 ×4</text>
    <text x="1450" y="504" font-size="10" fill="#424242">驱动：四路智能驱动 (AT8236×4+MCU)</text>
    <text x="1450" y="522" font-size="10" fill="#424242">IMU：MPU6050 (I2C 0x68)</text>
    <text x="1450" y="540" font-size="10" fill="#424242">测距：VL53L0X ×2 (0x30/0x31)</text>
    <text x="1450" y="558" font-size="10" fill="#424242">舵机：SG90M 数字 ×2</text>
    <text x="1450" y="576" font-size="10" fill="#424242">电池：2S 7.4V 500mAh</text>
    <text x="1450" y="594" font-size="10" fill="#424242">供电：5V/2A DC-DC</text>
    <text x="1450" y="612" font-size="10" fill="#424242">底盘：四驱轮式 228×148×102.15mm</text>
    <text x="1450" y="630" font-size="10" fill="#424242">尺寸：≤250×200×180mm</text>
    <text x="1450" y="648" font-size="10" fill="#424242">重量：≤1.5kg</text>
    <text x="1450" y="666" font-size="10" fill="#424242">激光：Class1 &lt;1mW</text>
    <text x="1450" y="684" font-size="10" fill="#424242">通信：UART 115200</text>
    <text x="1450" y="702" font-size="10" fill="#424242">I2C：400kHz</text>
    <text x="1450" y="720" font-size="10" fill="#424242">PWM：舵机 50Hz（电机由驱动板内置）</text>
  </g>

  <!-- ===================== 注释 ===================== -->
  <g id="notes">
    <rect x="30" y="1020" width="1740" height="200" rx="8" fill="#fffde7" stroke="#f9a825" stroke-width="1.5"/>
    <text x="900" y="1045" text-anchor="middle" font-size="13" font-weight="bold" fill="#f57f17">接线注意事项</text>

    <text x="50" y="1070" font-size="11" fill="#333">1. 电源顺序：先接电池负极(GND)，再接正极；所有模块共地。驱动板 VM(7.4V) 与 5V/3.3V 输出不可接反。</text>
    <text x="50" y="1090" font-size="11" fill="#333">2. 滤波电容 C1/C2 (1000μF/16V) 就近并联在驱动板电源输入端，吸收电机启动尖峰，防止主控复位。</text>
    <text x="50" y="1110" font-size="11" fill="#333">3. 双 VL53L0X 默认地址均为 0x29，必须通过 XSHUT 引脚逐个复位并改址为 0x30、0x31，否则 I2C 冲突。</text>
    <text x="50" y="1130" font-size="11" fill="#333">4. MPU6050 开机需静止校准陀螺仪零偏；安装时 Z 轴朝上，X 轴指向车头。</text>
    <text x="50" y="1150" font-size="11" fill="#333">5. 四路驱动板通过 UART2(GPIO17=TX, GPIO18=RX) 与 ESP32 通信，内置 PID 与编码器，ESP32 无需 GPIO PWM/中断。</text>
    <text x="50" y="1170" font-size="11" fill="#333">6. K230 与 ESP32 串口交叉连接：K230_TX → ESP32_RX(GPIO13)，K230_RX → ESP32_TX(GPIO12)。</text>
    <text x="50" y="1190" font-size="11" fill="#333">7. 舵机由 K230 GPIO42/43(PWM0/1) 直接控制，5V 供电建议增加 470μF 电容；云台走线避开电机动力线，减少干扰。</text>
    <text x="50" y="1210" font-size="11" fill="#333">8. 驱动板上电配置：$mtype:3#(TT带编码器)、$mphase:45#、$mline:13#、$wdiameter:65#，断电保存，M1=左前 M2=左后 M3=右前 M4=右后。</text>
    <text x="50" y="1230" font-size="11" fill="#d32f2f">9. 首次上电前务必用万用表确认 5V、3.3V 电压正常，再接入主控，避免烧板。</text>
  </g>
</svg>
